<?xml version="1.0" standalone="no"?>
<!DOCTYPE svg PUBLIC "-//W3C//DTD SVG 20010904//EN"
 "http://www.w3.org/TR/2001/REC-SVG-20010904/DTD/svg10.dtd">
<svg version="1.0" xmlns="http://www.w3.org/2000/svg"
 width="626.000000pt" height="334.000000pt" viewBox="0 0 626.000000 334.000000"
 preserveAspectRatio="xMidYMid meet">

<g transform="translate(0.000000,334.000000) scale(0.100000,-0.100000)"
fill="#000000" stroke="none">
<path d="M2080 1643 c0 -731 4 -1164 10 -1173 5 -8 10 -13 10 -10 6 89 11
2158 5 2233 -19 283 -25 36 -25 -1050z"/>
<path d="M2537 2293 c-4 -3 -7 -164 -7 -356 l0 -349 188 4 c203 4 221 8 273
65 40 42 59 87 59 135 0 53 -29 118 -64 145 -26 21 -33 39 -17 45 5 2 20 21
35 42 63 94 14 220 -103 261 -32 11 -85 15 -201 15 -86 0 -160 -3 -163 -7z
m306 -132 c50 -19 56 -105 10 -130 -31 -16 -91 -24 -138 -17 l-45 7 0 75 0 74
74 0 c41 0 86 -4 99 -9z m38 -300 c26 -32 24 -77 -5 -106 -17 -17 -39 -25 -88
-30 -114 -12 -113 -13 -116 83 l-3 84 96 -4 c87 -3 99 -5 116 -27z"/>
<path d="M3180 1945 l0 -355 215 0 215 0 0 70 0 70 -140 0 -140 0 0 75 0 75
125 0 125 0 0 64 c0 63 0 64 -31 70 -17 3 -74 6 -125 6 l-94 0 0 70 0 70 134
0 c149 0 146 -2 146 77 0 65 9 63 -221 63 l-209 0 0 -355z"/>
<path d="M3757 2293 c-4 -3 -7 -163 -7 -355 l0 -348 215 0 215 0 0 60 c0 33
-1 63 -2 68 -2 4 -52 7 -113 8 -185 2 -165 -8 -165 79 l0 74 123 3 122 3 3 62
3 62 -45 6 c-25 4 -81 6 -126 4 l-80 -4 0 72 0 73 135 0 135 0 0 70 0 70 -203
0 c-112 0 -207 -3 -210 -7z"/>
<path d="M4280 2230 l0 -69 140 -3 140 -3 -98 -180 c-166 -304 -183 -337 -193
-361 l-9 -24 271 0 270 0 -3 68 -3 67 -148 3 c-136 2 -148 4 -142 20 3 9 69
132 146 273 76 141 139 261 139 267 0 9 -69 12 -255 12 l-255 0 0 -70z"/>
<path d="M4917 2293 c-4 -3 -7 -163 -7 -355 l0 -348 210 0 210 0 0 70 0 70
-135 0 -135 0 0 285 0 285 -68 0 c-38 0 -72 -3 -75 -7z"/>
<path d="M5440 1945 l0 -355 220 0 221 0 -3 68 -3 67 -110 2 c-60 1 -125 2
-142 3 l-33 0 0 75 0 75 125 0 125 0 0 64 0 65 -56 7 c-30 3 -74 4 -97 1 -23
-3 -54 -3 -69 0 -27 5 -28 7 -28 74 l0 69 134 0 c147 0 146 0 146 63 0 18 -3
42 -6 55 -6 22 -7 22 -215 22 l-209 0 0 -355z"/>
<path d="M2460 1430 c0 -5 14 -10 30 -10 l30 0 0 -100 c0 -60 4 -100 10 -100
6 0 10 40 10 100 l0 100 35 0 c19 0 35 5 35 10 0 6 -32 10 -75 10 -43 0 -75
-4 -75 -10z"/>
<path d="M2658 1434 c-12 -11 -10 -214 1 -214 6 0 11 24 13 53 l3 52 60 0 60
0 6 -55 6 -55 3 45 c1 25 4 61 6 80 1 19 -1 51 -6 70 -8 33 -8 33 -9 -17 l-1
-53 -64 0 -65 0 -3 51 c-2 28 -6 47 -10 43z"/>
<path d="M2894 1330 c0 -63 1 -89 3 -57 2 31 2 83 0 115 -2 31 -3 5 -3 -58z"/>
<path d="M2970 1330 c0 -60 3 -110 8 -110 4 0 9 39 10 88 2 48 5 88 6 89 2 2
26 -30 108 -144 13 -18 26 -33 31 -33 4 0 7 50 7 111 0 68 -4 108 -10 104 -5
-3 -7 -40 -5 -85 3 -43 1 -81 -4 -84 -4 -3 -36 35 -70 84 -34 50 -66 90 -71
90 -6 0 -10 -46 -10 -110z"/>
<path d="M3210 1331 c0 -67 4 -111 10 -111 6 0 10 25 10 55 0 34 4 55 11 55
12 0 99 -90 99 -102 0 -5 7 -8 16 -8 11 0 7 11 -18 41 -62 77 -61 70 -23 118
51 64 43 74 -11 13 -57 -65 -74 -67 -74 -8 0 25 -4 48 -10 51 -6 4 -10 -33
-10 -104z"/>
<path d="M3567 1433 c-9 -9 -7 -150 3 -188 7 -26 8 -22 9 23 l1 52 53 2 52 1
-50 6 -50 6 -3 43 c-3 45 -1 47 71 43 15 0 27 3 27 9 0 11 -103 14 -113 3z"/>
<path d="M3730 1330 l0 -110 60 0 c33 0 60 3 60 8 0 4 -21 7 -47 7 l-48 0 0
45 0 45 43 0 c23 0 42 3 42 8 0 4 -20 7 -45 7 l-45 0 0 40 0 40 50 0 c28 0 50
5 50 10 0 6 -27 10 -60 10 l-60 0 0 -110z"/>
<path d="M3910 1330 l0 -110 62 0 c34 0 58 3 55 6 -6 6 -26 9 -90 13 -15 1
-18 8 -15 44 l3 42 47 -1 c26 0 45 3 42 8 -3 4 -25 8 -50 8 -43 0 -44 0 -44
34 0 44 20 60 64 52 20 -4 37 -2 41 4 4 6 -15 10 -54 10 l-61 0 0 -110z"/>
<path d="M4080 1330 l0 -110 60 0 c33 0 60 4 60 8 0 5 -21 8 -47 8 l-48 -1 -3
103 c-4 139 -22 132 -22 -8z"/>
<path d="M4400 1329 l0 -111 60 4 c69 5 106 31 116 83 14 77 -44 135 -136 135
l-40 0 0 -111z m127 76 c25 -17 39 -71 29 -110 -8 -31 -39 -51 -93 -59 l-43
-6 0 95 0 95 43 0 c23 0 52 -7 64 -15z"/>
<path d="M4630 1330 l0 -110 66 0 c41 0 63 4 59 10 -3 6 -29 10 -56 10 l-50 0
3 43 c3 42 3 42 48 48 l45 6 -47 1 -48 2 0 40 c0 43 2 44 68 40 17 -1 32 3 32
9 0 7 -24 11 -60 11 l-60 0 0 -110z"/>
<path d="M4828 1433 c-10 -2 -21 -15 -24 -28 -11 -46 -1 -59 58 -78 75 -25 88
-60 31 -86 -31 -14 -59 -6 -73 20 -11 20 -30 26 -30 9 0 -24 41 -50 78 -50 45
0 72 24 72 63 0 30 -8 36 -69 57 -24 8 -49 22 -54 32 -28 44 67 69 97 26 l16
-22 0 21 c0 35 -46 51 -102 36z"/>
<path d="M5004 1330 c0 -63 1 -89 3 -57 2 31 2 83 0 115 -2 31 -3 5 -3 -58z"/>
<path d="M5121 1427 c-49 -29 -65 -100 -36 -157 19 -37 43 -50 95 -50 33 0 48
6 71 29 30 30 38 68 17 76 -7 3 -33 1 -58 -4 l-45 -9 46 -1 c56 -1 62 -7 43
-36 -34 -53 -126 -52 -154 1 -21 38 -16 92 11 120 35 38 101 34 139 -8 24 -25
28 -27 24 -10 -4 11 -14 28 -25 38 -24 22 -97 28 -128 11z"/>
<path d="M5342 1329 c2 -106 2 -108 5 -29 2 47 7 88 11 92 4 4 35 -33 70 -83
34 -49 67 -89 72 -89 13 0 13 207 0 215 -5 3 -10 -31 -12 -86 l-3 -92 -58 81
c-89 124 -87 124 -85 -9z"/>
<path d="M3400 1230 c0 -5 5 -10 10 -10 6 0 10 5 10 10 0 6 -4 10 -10 10 -5 0
-10 -4 -10 -10z"/>
<path d="M4230 1230 c0 -5 7 -10 16 -10 8 0 12 5 9 10 -3 6 -10 10 -16 10 -5
0 -9 -4 -9 -10z"/>
</g>
</svg>
